<svg width="120" height="120" viewBox="0 0 120 120" fill="none" xmlns="http://www.w3.org/2000/svg">
  <g stroke="#000000" stroke-width="5" stroke-linecap="round" stroke-linejoin="round">
    <path d="M26 45c7 8 17 8 24 0 6-7 14-7 20 0 7 8 17 8 24 0" />
    <path d="M60 18v25" />
    <path d="M47 43h26" />
    <path d="M24 48l-12 39h32L32 48" />
    <path d="M88 48l-12 39h32L96 48" />
    <path d="M16 87c8 8 18 8 26 0" />
    <path d="M80 87c8 8 18 8 26 0" />
    <path d="M60 50v22" />
    <path d="M50 98c7-5 13-5 20 0" />
  </g>
  <path d="M60 58l12 32H48l12-32Z" fill="#000000" />
  <circle cx="60" cy="78" r="3.5" fill="white" />
  <path d="M48 97c8-7 16-7 24 0" stroke="#000000" stroke-width="4" stroke-linecap="round" />
</svg>
